<svg version="1.1" fill="#5CA4AD" id="Icons" xmlns="http://www.w3.org/2000/svg" x="0" y="0" viewBox="0 0 32 32" style="enable-background:new 0 0 32 32" xml:space="preserve"><style></style><path d="M19 8c.6 0 1-.4 1-1V5c0-1.7-1.3-3-3-3H7C5.3 2 4 3.3 4 5v22c0 1.7 1.3 3 3 3h10c1.7 0 3-1.3 3-3v-4c0-.6-.4-1-1-1H6V8h13zm-8 17h2c.6 0 1 .4 1 1s-.4 1-1 1h-2c-.6 0-1-.4-1-1s.4-1 1-1z"/><path fill="#F96363" d="M14 19c-.3 0-.5-.1-.7-.3l-3-3c-.4-.4-.4-1 0-1.4l3-3c.4-.4 1-.4 1.4 0s.4 1 0 1.4L12.4 15l2.3 2.3c.4.4.4 1 0 1.4-.2.2-.4.3-.7.3zM24 19c-.3 0-.5-.1-.7-.3-.4-.4-.4-1 0-1.4l2.3-2.3-2.3-2.3c-.4-.4-.4-1 0-1.4s1-.4 1.4 0l3 3c.4.4.4 1 0 1.4l-3 3c-.2.2-.4.3-.7.3zM17 20c-.1 0-.3 0-.4-.1-.5-.2-.7-.8-.4-1.3l4-8c.2-.5.8-.7 1.3-.4.5.2.7.8.4 1.3l-4 8c-.2.3-.5.5-.9.5z"/></svg>