<svg xmlns="http://www.w3.org/2000/svg" viewBox="0 0 512 512" style="enable-background:new 0 0 512 512" xml:space="preserve"><circle style="fill:#0f7986" cx="256" cy="256" r="256"/><path style="fill:#21d0c3" d="m291.118 143.588 94.009 248.462c2.066 5.46-.706 11.595-6.16 13.66l-159.816 60.469c-5.46 2.066-11.595-.704-13.66-6.159l-94.007-248.464c-.854-2.252-.937-4.432-.258-6.739l29.708-101.078c.969-3.293 3.209-5.711 6.414-6.925l40.932-15.486c3.208-1.214 6.485-.886 9.389.943l89.18 56.093c2.037 1.283 3.418 2.973 4.269 5.224zm-116.306-36.02c4.753-1.797 10.062.594 11.858 5.35 1.797 4.748-.595 10.059-5.347 11.855-4.749 1.798-10.059-.597-11.86-5.347-1.796-4.752.597-10.062 5.349-11.858z"/><path style="fill:#15bdb2" d="M385.125 392.052c2.069 5.456-.704 11.592-6.16 13.66L219.15 466.181c-5.458 2.064-11.593-.705-13.658-6.164l179.633-67.965z"/><path style="fill:#fff" d="M171.045 97.601c10.249-3.878 21.709 1.291 25.589 11.546 3.878 10.251-1.286 21.711-11.54 25.589-10.253 3.879-21.713-1.288-25.591-11.54-3.883-10.253 1.286-21.713 11.542-25.595zm3.765 9.968c4.754-1.798 10.063.592 11.863 5.343 1.794 4.754-.598 10.065-5.351 11.861-4.749 1.798-10.059-.597-11.86-5.346-1.795-4.756.601-10.062 5.348-11.858z"/><path style="fill:#ecf0f1" d="M173.496 104.081c6.669-2.526 14.133.84 16.659 7.515 2.525 6.674-.839 14.134-7.512 16.659-6.68 2.526-14.141-.838-16.664-7.51-2.524-6.678.839-14.135 7.517-16.664zm1.314 3.488c4.754-1.798 10.063.592 11.863 5.343 1.794 4.754-.598 10.065-5.351 11.861-4.749 1.798-10.059-.597-11.86-5.346-1.795-4.756.601-10.062 5.348-11.858z"/><path style="fill:#15bdb2" d="m244.34 249.858 5.841-7.833 13.734 7.929-3.867 8.988a54.794 54.794 0 0 1 7.312 7.312l8.988-3.867 7.93 13.734-7.834 5.844a54.278 54.278 0 0 1 2.67 9.997l9.714 1.142v15.859l-9.714 1.144a54.373 54.373 0 0 1-2.67 9.998l7.833 5.841-7.928 13.734-8.988-3.867a54.853 54.853 0 0 1-7.312 7.312l3.867 8.988-13.734 7.93-5.844-7.834a54.342 54.342 0 0 1-9.997 2.67l-1.142 9.714H217.34l-1.144-9.714a54.373 54.373 0 0 1-9.998-2.67l-5.841 7.833-13.734-7.928 3.867-8.988a54.853 54.853 0 0 1-7.312-7.312l-8.988 3.867-7.93-13.734 7.834-5.844a54.342 54.342 0 0 1-2.67-9.997l-9.714-1.142v-15.859l9.714-1.144a54.373 54.373 0 0 1 2.67-9.998l-7.833-5.841 7.929-13.734 8.988 3.867a54.853 54.853 0 0 1 7.312-7.312l-3.867-8.988 13.734-7.93 5.844 7.834a54.32 54.32 0 0 1 9.997-2.67l1.142-9.714h15.859l1.142 9.714a54.26 54.26 0 0 1 9.999 2.669zm-19.071 26.177c13.806 0 24.996 11.191 24.996 24.996 0 13.806-11.191 24.996-24.996 24.996-13.806 0-24.996-11.191-24.996-24.996 0-13.806 11.191-24.996 24.996-24.996z"/><path style="fill:#fad24d" d="M268.717 82.258 460.686 265.89c4.217 4.035 4.363 10.766.331 14.983L342.902 404.349c-4.032 4.217-10.762 4.366-14.98.329l-191.968-183.63c-1.737-1.663-2.754-3.594-3.137-5.969L116.03 111.071c-.543-3.385.434-6.536 2.806-9.012l30.252-31.623c2.371-2.478 5.47-3.596 8.88-3.201l104.65 12.157c2.385.276 4.361 1.205 6.099 2.866zm-120.464 17.66c3.51-3.673 9.329-3.803 13.003-.29 3.671 3.511 3.801 9.335.287 13.004-3.51 3.671-9.334 3.8-13.007.287-3.665-3.511-3.799-9.33-.283-13.001z"/><path style="fill:#edb937" d="M460.685 265.89c4.217 4.035 4.363 10.766.331 14.983L342.902 404.349c-4.032 4.217-10.762 4.366-14.98.329L460.685 265.89z"/><path style="fill:#fff" d="M140.552 92.551c7.577-7.921 20.145-8.201 28.067-.621 7.921 7.576 8.199 20.144.623 28.066-7.578 7.922-20.144 8.201-28.066.623-7.923-7.578-8.201-20.145-.624-28.068zm7.698 7.365a9.2 9.2 0 0 1 13.007-.287 9.196 9.196 0 0 1 .287 13.004c-3.511 3.671-9.334 3.801-13.004.288a9.197 9.197 0 0 1-.29-13.005z"/><path style="fill:#ecf0f1" d="M145.558 97.341c4.933-5.157 13.116-5.339 18.273-.404 5.157 4.932 5.339 13.113.405 18.27-4.933 5.157-13.116 5.339-18.271.405-5.159-4.932-5.339-13.115-.407-18.271zm2.692 2.575a9.2 9.2 0 0 1 13.007-.287 9.196 9.196 0 0 1 .287 13.004c-3.511 3.671-9.334 3.801-13.004.288a9.197 9.197 0 0 1-.29-13.005z"/><path style="fill:#fefefe" d="M248.702 153.328c5.462-5.845 11.05-9.025 16.762-9.551 5.708-.521 11.347 1.82 16.915 7.03 5.567 5.21 8.28 10.679 8.139 16.408-.143 5.736-2.945 11.518-8.411 17.365l-2.125 2.266-10.722-10.028 2.798-2.992c2.441-2.611 3.667-4.914 3.665-6.914 0-1.997-.893-3.835-2.682-5.503-1.783-1.674-3.674-2.441-5.671-2.309-1.991.133-4.211 1.508-6.654 4.116-2.312 2.476-3.807 5.172-4.474 8.09-.67 2.922-.966 5.994-.892 9.221.076 3.229.273 6.564.586 10.018.314 3.451.363 6.948.149 10.487-.214 3.534-.959 7.088-2.241 10.662-1.277 3.57-3.526 7.075-6.742 10.511-5.464 5.844-11.088 8.994-16.869 9.454-5.773.461-11.447-1.915-17.015-7.123-5.565-5.211-8.316-10.711-8.243-16.508.073-5.795 2.84-11.614 8.309-17.456l4.147-4.437 10.727 10.032-4.829 5.156c-2.44 2.613-3.611 4.93-3.51 6.959s1.043 3.877 2.83 5.548c1.789 1.672 3.696 2.491 5.725 2.455 2.032-.033 4.266-1.354 6.71-3.964 2.317-2.479 3.81-5.175 4.479-8.093.667-2.918.962-5.997.889-9.221a146.466 146.466 0 0 0-.584-10.02 68.79 68.79 0 0 1-.149-10.481c.215-3.54.961-7.091 2.239-10.662 1.28-3.575 3.529-7.081 6.744-10.516zm39.095 61.128 15.569 14.562-9.644 10.312-15.568-14.564-19.776 21.134 19.589 18.326-9.642 10.308-30.933-28.934 67.517-72.173 30.931 28.937-9.644 10.312-19.589-18.327-18.81 20.107zm13.479 59.783c-2.443 2.611-3.631 4.946-3.559 7.009.067 2.061.996 3.931 2.783 5.6 1.787 1.675 3.711 2.476 5.774 2.406 2.064-.069 4.312-1.41 6.758-4.021l36.461-38.974c2.441-2.611 3.629-4.947 3.561-7.01-.069-2.064-.996-3.932-2.782-5.603-1.791-1.671-3.717-2.473-5.777-2.403-2.063.068-4.316 1.41-6.757 4.018l-36.462 38.978zm24.444-48.865c5.463-5.842 11.139-8.944 17.02-9.308 5.879-.359 11.605 2.062 17.172 7.271 5.568 5.208 8.368 10.761 8.398 16.653.031 5.891-2.685 11.758-8.153 17.6l-35.11 37.528c-5.463 5.847-11.138 8.948-17.018 9.31-5.882.362-11.607-2.061-17.174-7.268-5.567-5.209-8.371-10.761-8.398-16.652-.032-5.892 2.69-11.759 8.153-17.603l35.11-37.531z"/><path style="fill:#ff5b62" d="M160.95 101.762a5.853 5.853 0 0 1-.506 8.263 5.856 5.856 0 0 1-8.264-.506l-50.833-57.525a258.748 258.748 0 0 1 9.532-6.897l50.071 56.665z"/><path style="fill:#ed4c54" d="m145.421 101.873-3.267-3.7 12.233-3.84 3.269 3.7-12.235 3.84zm-44.072-49.879a258.971 258.971 0 0 1 6.108-4.509l4.332-1.36 3.27 3.7-12.234 3.84-1.476-1.671zm35.554 40.238-3.269-3.699 12.234-3.84 3.269 3.698-12.234 3.841zm-8.519-9.643-3.269-3.698 12.233-3.84 3.269 3.699-12.233 3.839zm-8.521-9.641-3.269-3.699 12.234-3.84 3.268 3.7-12.233 3.839zm-8.518-9.642-3.27-3.7 12.233-3.839 3.27 3.7-12.233 3.839z"/><path style="fill:#15bdb2" d="M257.53 380.036a25.925 25.925 0 0 1 4.056 3.693l5.662-1.998 5.892 12.417-5.26 2.96c.277 1.794.369 3.629.26 5.476l5.415 2.591-4.613 12.947-5.812-1.627a26.028 26.028 0 0 1-3.693 4.056l1.999 5.663-12.418 5.892-2.96-5.26a25.827 25.827 0 0 1-5.477.26l-2.589 5.414-12.948-4.612 1.627-5.81a25.838 25.838 0 0 1-4.055-3.693l-5.664 1.999-5.893-12.419 5.258-2.96a26.158 26.158 0 0 1-.258-5.476l-5.414-2.59 4.611-12.948 5.813 1.626a26.053 26.053 0 0 1 3.692-4.054l-1.998-5.664 12.417-5.892 2.96 5.26a25.96 25.96 0 0 1 5.477-.26l2.589-5.414 12.949 4.612-1.625 5.811zm-15.428 7.364c7.549 0 13.667 6.119 13.667 13.667 0 7.547-6.119 13.666-13.667 13.666-7.547 0-13.666-6.119-13.666-13.666-.001-7.549 6.118-13.667 13.666-13.667z"/></svg>